<svg width="120" height="120" viewBox="0 0 120 120" fill="none" xmlns="http://www.w3.org/2000/svg">
<path d="M120.002 59.9999C120.002 93.1498 93.1518 120 60.0018 120C26.8519 120 0.00195312 93.1498 0.00195312 59.9999C0.00195312 26.85 26.8519 0 60.0018 0C93.1518 0 120.002 26.85 120.002 59.9999Z" fill="url(#paint0_radial_1364_17)"/>
<path d="M44.1016 92.2494C44.1016 95.5494 51.1516 94.9494 60.0016 94.9494C68.7016 94.9494 75.9015 95.3994 75.9015 92.2494C75.9015 88.3494 68.8516 85.6494 60.0016 85.6494C51.1516 85.7994 44.1016 88.3494 44.1016 92.2494Z" fill="url(#paint1_linear_1364_17)"/>
<path d="M25.3535 68.2497C25.3535 61.4997 30.0035 55.9497 35.8535 55.9497C41.7035 55.9497 46.3535 61.4997 46.3535 68.2497C46.3535 71.0997 45.6035 73.6497 44.1035 75.7497C43.5035 76.6497 42.4535 77.3997 41.2535 77.6997C39.9035 77.9997 37.9535 78.2997 35.7035 78.2997C33.4535 78.2997 31.5035 77.9997 30.1535 77.6997C28.9535 77.3997 28.0536 76.7997 27.3036 75.7497C26.1036 73.4997 25.3535 70.9497 25.3535 68.2497Z" fill="url(#paint2_radial_1364_17)"/>
<path d="M73.5039 68.2497C73.5039 61.4997 78.1539 55.9497 84.0039 55.9497C89.8539 55.9497 94.5039 61.4997 94.5039 68.2497C94.5039 71.0997 93.6039 73.6497 92.2539 75.7497C91.6539 76.6497 90.6038 77.3997 89.4038 77.6997C87.6038 78.1497 85.8038 78.2997 83.8538 78.2997C81.6038 78.2997 79.6539 77.9997 78.3039 77.6997C77.1039 77.3997 76.2039 76.7997 75.4539 75.7497C74.2539 73.4997 73.5039 70.9497 73.5039 68.2497Z" fill="url(#paint3_radial_1364_17)"/>
<path d="M37.2031 64.4997C37.2031 64.6497 37.2031 64.7997 37.2031 65.0997C37.2031 66.5997 35.8531 67.7997 34.2031 67.7997C32.5531 67.7997 31.2031 66.5997 31.2031 65.0997C31.2031 64.4997 31.3532 63.8997 31.8032 63.4497C33.6032 63.7497 35.4031 64.0497 37.2031 64.4997Z" fill="#4F4F67"/>
<path d="M81.6035 67.7997C79.9535 67.7997 78.7535 66.5997 78.6035 65.2497C80.5535 64.9497 82.5036 64.6497 84.3036 64.1997C84.4536 64.4997 84.4535 64.7997 84.4535 65.0997C84.6035 66.4497 83.2535 67.7997 81.6035 67.7997Z" fill="#4F4F67"/>
<path d="M49.5041 56.8504C52.8041 57.1504 52.204 63.0004 49.3541 63.0004C37.3541 61.6504 25.9542 58.2004 21.3042 55.9504C19.8042 55.2004 19.3541 54.1504 19.6541 52.9504C19.9541 51.6004 21.3042 50.7004 22.0542 51.0004C33.7542 54.1504 37.9541 55.6504 49.5041 56.8504Z" fill="url(#paint4_linear_1364_17)"/>
<path d="M70.355 56.8504C67.055 57.1504 67.655 63.0004 70.505 63.0004C82.505 61.6504 93.905 58.2004 98.555 55.9504C100.055 55.2004 100.505 54.1504 100.205 52.9504C99.905 51.6004 98.555 50.7004 97.805 51.0004C86.255 54.1504 82.055 55.6504 70.355 56.8504Z" fill="url(#paint5_linear_1364_17)"/>
<defs>
<radialGradient id="paint0_radial_1364_17" cx="0" cy="0" r="1" gradientUnits="userSpaceOnUse" gradientTransform="translate(42.0623 40.1242) rotate(76.293) scale(78.6551 78.6551)">
<stop stop-color="#FFB06C"/>
<stop offset="1" stop-color="#FD4545"/>
</radialGradient>
<linearGradient id="paint1_linear_1364_17" x1="60.0015" y1="87.027" x2="60.0015" y2="95.0839" gradientUnits="userSpaceOnUse">
<stop stop-color="#3F1D04"/>
<stop offset="1" stop-color="#7E2307"/>
</linearGradient>
<radialGradient id="paint2_radial_1364_17" cx="0" cy="0" r="1" gradientUnits="userSpaceOnUse" gradientTransform="translate(35.8909 67.1247) scale(10.8563 10.8563)">
<stop stop-color="#2C445F"/>
<stop offset="0.9792" stop-color="#191A33"/>
</radialGradient>
<radialGradient id="paint3_radial_1364_17" cx="0" cy="0" r="1" gradientUnits="userSpaceOnUse" gradientTransform="translate(84.1113 67.1248) scale(10.864 10.864)">
<stop stop-color="#2C445F"/>
<stop offset="0.9792" stop-color="#191A33"/>
</radialGradient>
<linearGradient id="paint4_linear_1364_17" x1="35.6552" y1="64.4563" x2="35.6552" y2="46.9588" gradientUnits="userSpaceOnUse">
<stop stop-color="#9A2F00"/>
<stop offset="1" stop-color="#D44800"/>
</linearGradient>
<linearGradient id="paint5_linear_1364_17" x1="84.2039" y1="64.4563" x2="84.2039" y2="46.9588" gradientUnits="userSpaceOnUse">
<stop stop-color="#9A2F00"/>
<stop offset="1" stop-color="#D44800"/>
</linearGradient>
</defs>
</svg>
