<svg width="120" height="120" viewBox="0 0 120 120" fill="none" xmlns="http://www.w3.org/2000/svg">
<path d="M120.001 59.9999C120.001 93.1657 93.2675 120 60.2261 120C27.1847 120 0.451172 93.1657 0.451172 59.9999C0.451172 26.8341 27.1847 0 60.2261 0C93.1173 0 120.001 26.8341 120.001 59.9999Z" fill="url(#paint0_radial_1364_56)"/>
<path d="M119.552 59.9999C119.552 93.1657 92.8184 120 59.7769 120C26.7355 120 0.00195312 93.1657 0.00195312 59.9999C0.00195312 26.8341 26.7355 0 59.7769 0C92.6682 0 119.552 26.8341 119.552 59.9999Z" fill="url(#paint1_radial_1364_56)"/>
<path d="M95.9669 71.1555C96.4174 68.5927 95.3661 66.0299 92.9631 65.1254C87.5563 62.8641 76.5926 59.9998 59.6213 59.9998C42.8002 59.9998 31.8365 62.8641 26.2795 65.1254C23.8765 66.0299 22.8252 68.5927 23.2757 71.1555C26.2795 86.5324 35.8916 105.226 59.6213 105.226C83.3511 105.075 92.9631 86.3816 95.9669 71.1555Z" fill="url(#paint2_linear_1364_56)"/>
<path d="M83.8023 95.7286C79.2966 91.5075 71.7872 88.1909 59.7721 88.1909C47.6069 88.1909 40.0974 91.5075 35.5918 95.7286C41.299 101.306 49.1087 105.075 59.6219 105.075C70.2853 105.075 78.0951 101.306 83.8023 95.7286Z" fill="url(#paint3_linear_1364_56)"/>
<path d="M28.6872 50.3518C26.7348 50.3518 25.2329 48.8442 24.9325 46.8844C24.1816 38.7437 30.1891 31.5076 38.4495 30.7538C46.5596 30 53.7687 36.0302 54.5196 44.3216C54.6698 46.4322 53.1679 48.2412 51.2155 48.392C49.1128 48.5427 47.3106 47.0352 47.1604 45.0754C46.86 41.005 43.2555 37.99 39.2004 38.2915C35.1453 38.593 32.1416 42.2111 32.4419 46.2814C32.5921 48.392 31.0902 50.201 29.1378 50.3518C28.8374 50.3518 28.6872 50.3518 28.6872 50.3518Z" fill="url(#paint4_radial_1364_56)"/>
<path d="M90.7146 50.3519C90.5644 50.3519 90.5644 50.3519 90.4142 50.3519C88.3115 50.2011 86.8097 48.3921 87.1101 46.2815C87.4105 42.2112 84.4067 38.5931 80.3516 38.2916C76.2966 37.9901 72.692 40.8544 72.3916 45.0755C72.2414 47.186 70.4392 48.6936 68.3365 48.3921C66.2339 48.2413 64.732 46.4323 65.0324 44.3217C65.7834 36.0303 72.9924 30.1509 81.1026 30.7539C89.2128 31.5077 95.2203 38.7438 94.6195 46.8845C94.169 48.8443 92.5168 50.3519 90.7146 50.3519Z" fill="url(#paint5_radial_1364_56)"/>
<defs>
<radialGradient id="paint0_radial_1364_56" cx="0" cy="0" r="1" gradientUnits="userSpaceOnUse" gradientTransform="translate(59.231 49.6661) rotate(90.0999) scale(81.2324 83.6338)">
<stop stop-color="#FFED85"/>
<stop offset="0.1898" stop-color="#FFE180"/>
<stop offset="0.5295" stop-color="#FFC273"/>
<stop offset="0.9773" stop-color="#FF915E"/>
<stop offset="1" stop-color="#FF8E5D"/>
</radialGradient>
<radialGradient id="paint1_radial_1364_56" cx="0" cy="0" r="1" gradientUnits="userSpaceOnUse" gradientTransform="translate(32.3932 29.692) scale(99.6575 100.032)">
<stop stop-color="#FFEA84" stop-opacity="0"/>
<stop offset="1" stop-color="#F08423" stop-opacity="0.34"/>
</radialGradient>
<linearGradient id="paint2_linear_1364_56" x1="59.6213" y1="61.8679" x2="59.6213" y2="114.428" gradientUnits="userSpaceOnUse">
<stop stop-color="#3F1D04"/>
<stop offset="1" stop-color="#7E2307"/>
</linearGradient>
<linearGradient id="paint3_linear_1364_56" x1="59.697" y1="86.3056" x2="59.697" y2="104.754" gradientUnits="userSpaceOnUse">
<stop stop-color="#FC607C"/>
<stop offset="1" stop-color="#D91F3A"/>
</linearGradient>
<radialGradient id="paint4_radial_1364_56" cx="0" cy="0" r="1" gradientUnits="userSpaceOnUse" gradientTransform="translate(39.6996 40.4935) scale(12.5283 12.5754)">
<stop stop-color="#2C445F"/>
<stop offset="0.9792" stop-color="#191A33"/>
</radialGradient>
<radialGradient id="paint5_radial_1364_56" cx="0" cy="0" r="1" gradientUnits="userSpaceOnUse" gradientTransform="translate(79.6247 40.4933) scale(12.5424 12.5896)">
<stop stop-color="#2C445F"/>
<stop offset="0.9792" stop-color="#191A33"/>
</radialGradient>
</defs>
</svg>
